<?xml version="1.0" encoding="UTF-8" standalone="no"?>
<!DOCTYPE svg PUBLIC "-//W3C//DTD SVG 1.1//EN" "http://www.w3.org/Graphics/SVG/1.1/DTD/svg11.dtd">
<svg xmlns="http://www.w3.org/2000/svg">
<metadata>
This is a custom SVG webfont generated by Font Squirrel.
Copyright   : Copyright 2010 URW Design  Development Hamburg
Foundry URL : wwwurwppde
</metadata>
<defs>
<font id="NimbusSansNovusRegular" horiz-adv-x="1120">
<font-face units-per-em="2048" ascent="1366" descent="-682"/>
<missing-glyph horiz-adv-x="512"/>
<glyph unicode=" " horiz-adv-x="512"/>
<glyph unicode="	" horiz-adv-x="512"/>
<glyph unicode=" " horiz-adv-x="512"/>
<glyph unicode="!" horiz-adv-x="538" d="M219 0v190h143v-190h-143zM225 965v401h129v-401l-28 -623h-72z"/>
<glyph unicode="&quot;" horiz-adv-x="581" d="M92 1366h129l-16 -547h-94zM358 1366h129l-16 -547h-94z"/>
<glyph unicode="#" d="M68 471l12 88h252l33 225h-252l12 88h252l51 371h90l-53 -371h240l51 371h90l-53 -371h260l-13 -88h-260l-30 -225h258l-13 -88h-258l-57 -403h-88l55 403h-237l-58 -403h-88l55 403h-251zM422 559h237l33 225h-239z"/>
<glyph unicode="$" d="M82 403h119q-2 -158 75.5 -239.5t245.5 -95.5v573q-197 39 -290 125t-93 229q0 156 103.5 252t279.5 107v166h88v-166q184 -8 287.5 -108.5t99.5 -264.5h-116q-6 256 -271 270v-516q217 -39 317.5 -131t100.5 -252q0 -221 -186 -327q-84 -45 -232 -54v-227h-88v225 q-209 4 -326.5 121.5t-113.5 312.5zM254 1004q0 -127 113 -195q41 -27 155 -53v497q-125 -4 -196.5 -70t-71.5 -179zM610 70q137 10 207 67q94 76 94 207q0 147 -125 217q-35 20 -176 64v-555z"/>
<glyph unicode="%" horiz-adv-x="1613" d="M84 999q0 172 82 266.5t229 94.5q141 0 219 -92t78 -260q0 -176 -80 -274.5t-225 -98.5q-147 0 -225 94t-78 270zM188 991q0 -133 51.5 -203.5t145.5 -70.5q98 0 150.5 73.5t52.5 213.5q0 272 -197 272q-203 0 -203 -285zM379 0l749 1325h101l-752 -1325h-98zM922 328 q0 178 80.5 274t230.5 96q139 0 217 -91t78 -257q0 -182 -78 -278.5t-225.5 -96.5t-225 91.5t-77.5 261.5zM1028 332q0 -276 199 -277q94 0 145 74t51 209q0 133 -50 204.5t-144 71.5q-201 1 -201 -282z"/>
<glyph unicode="&amp;" horiz-adv-x="1230" d="M88 344q0 176 164 303q102 78 174 113q-90 113 -128 186.5t-38 143.5q0 121 85 197.5t220 76.5q131 0 214 -76t83 -194q0 -102 -62.5 -186.5t-205.5 -172.5l289 -354q41 104 47 223h112q-2 -74 -26.5 -168t-54.5 -147l243 -289h-153l-156 188q-145 -215 -397 -215 q-182 0 -296 103.5t-114 267.5zM211 346q0 -115 86 -193.5t211 -78.5q190 0 319 198l-335 410q-156 -90 -218.5 -165t-62.5 -171zM373 1092q0 -94 157 -277q219 123 220 270q0 78 -53.5 129.5t-133.5 51.5q-82 0 -136 -49t-54 -125z"/>
<glyph unicode="'" horiz-adv-x="315" d="M92 1366h129l-16 -547h-94z"/>
<glyph unicode="(" horiz-adv-x="567" d="M88 498q0 223 72.5 455.5t199.5 412.5h95q-246 -387 -246 -872q0 -457 246 -861h-95q-143 236 -207.5 441t-64.5 424z"/>
<glyph unicode=")" horiz-adv-x="567" d="M115 -367q246 389 245 873q0 455 -245 860h94q143 -238 207.5 -441.5t64.5 -422.5q0 -223 -72.5 -455.5t-199.5 -413.5h-94z"/>
<glyph unicode="*" d="M272 1139l25 71l221 -80v236h80v-236l221 80l27 -71l-223 -76l137 -189l-60 -45l-143 193l-139 -191l-66 46l142 186z"/>
<glyph unicode="+" d="M100 618v89h414v413h88v-413h414v-89h-414v-413h-88v413h-414z"/>
<glyph unicode="," horiz-adv-x="456" d="M137 -184q84 33 88 184h-75v199h157v-142q0 -145 -38 -216.5t-132 -104.5v80z"/>
<glyph unicode="-" horiz-adv-x="454" d="M0 451v108h455v-108h-455z"/>
<glyph unicode="." horiz-adv-x="456" d="M150 0v205h157v-205h-157z"/>
<glyph unicode="/" horiz-adv-x="806" d="M-76 -367l709 1733h98l-704 -1733h-103z"/>
<glyph unicode="0" d="M92 645q0 313 84 477q117 231 389 232q127 0 227.5 -61.5t153.5 -172.5q82 -164 82 -465q0 -279 -78 -446q-117 -238 -389 -238q-469 0 -469 674zM217 641q0 -223 55 -369q37 -92 114 -144t175 -52q342 0 342 583q0 590 -338 590q-176 0 -262 -149.5t-86 -458.5z"/>
<glyph unicode="1" d="M242 997v93q205 4 274.5 49t101.5 198h97v-1337h-127v997h-51h-131h-109h-55z"/>
<glyph unicode="2" d="M109 0q14 180 99 290.5t322 262.5q195 129 263.5 215t68.5 203q0 127 -81 202.5t-214 75.5q-180 0 -258 -141q-47 -84 -49 -229h-119q-2 225 113 350t321 125q188 0 300 -103.5t112 -277.5q0 -170 -127 -303q-49 -53 -108.5 -98.5t-198.5 -135.5q-160 -100 -223.5 -168.5 t-83.5 -158.5h65h682v-109h-884z"/>
<glyph unicode="3" d="M84 430h117q0 -119 45 -201q41 -72 120.5 -112.5t176.5 -40.5q145 0 240.5 85t95.5 214q0 154 -119 229q-78 53 -238 53q-37 0 -61 -2v101h18h35q150 0 232.5 64.5t82.5 180.5q0 113 -77.5 180.5t-206.5 67.5q-147 0 -228 -86t-88 -250h-114q8 213 120.5 327t315.5 114 q180 0 291.5 -95.5t111.5 -250.5q0 -109 -60 -187t-167 -106q133 -27 205 -111t72 -217q0 -186 -128 -301t-335 -115q-289 0 -404 209q-53 96 -53 250z"/>
<glyph unicode="4" d="M84 328v112l629 897h102v-909h203v-100h-203v-328h-113v328h-618zM182 428h133h387v528q0 129 3 222q-109 -168 -121 -187l-293 -413q-23 -35 -53 -76z"/>
<glyph unicode="5" d="M102 387h117q10 -145 98.5 -230t229.5 -85q143 0 239.5 102t96.5 256q0 158 -94.5 257t-243.5 99q-188 0 -299 -155l-105 4l131 690h670v-108h-582l-65 -312q-4 -27 -16 -80q-6 -37 -15 -69q111 135 305 135q190 0 314.5 -127t124.5 -326q0 -203 -130 -335t-331 -132 q-199 0 -323 117t-122 299z"/>
<glyph unicode="6" d="M109 631q0 348 124.5 535.5t360.5 187.5q170 0 274.5 -92.5t124.5 -260.5h-119q-20 117 -94.5 182.5t-189.5 65.5q-242 0 -326 -291q-33 -113 -41 -319q113 233 373 233q188 0 309 -123.5t121 -316.5q0 -201 -127 -331t-319 -130q-121 0 -220.5 54.5t-158.5 150.5 q-92 154 -92 455zM250 428q0 -152 93 -252t234.5 -100t232.5 98t91 250q0 150 -91 247t-230 97q-145 0 -237.5 -95t-92.5 -245z"/>
<glyph unicode="7" d="M154 1212v113h862v-108q-236 -240 -377 -557.5t-166 -659.5h-129q14 315 168 649t387 565q-98 -2 -139 -2h-606z"/>
<glyph unicode="8" d="M100 377q0 133 72 224t201 122q-104 29 -161.5 104.5t-57.5 184.5q0 154 111.5 248t295.5 94t295 -92.5t111 -243.5q0 -223 -217 -295q270 -68 270 -336q0 -193 -124 -304.5t-337 -111.5q-211 0 -335 110t-124 296zM225 379q0 -137 91.5 -220t242.5 -83q154 0 245 82 t91 221q0 131 -92 211t-243.5 80t-243 -79t-91.5 -212zM274 1006q0 -109 78 -174.5t209 -65.5t208 64.5t77 175.5q0 115 -76 179t-207 64q-133 0 -211 -65t-78 -178z"/>
<glyph unicode="9" d="M94 897q0 199 126 328t321 129q289 0 407 -258q63 -141 64 -398q0 -272 -70 -440q-57 -139 -162.5 -213t-244.5 -74q-170 0 -281 95.5t-125 255.5h117q16 -113 95 -179.5t198 -66.5q133 0 218 92t117 268q16 90 19 264q-37 -80 -78 -125q-104 -121 -291 -120 q-188 0 -309 123.5t-121 318.5zM219 901q0 -150 90 -246t230 -96q143 0 235 95.5t92 246.5q0 150 -92 249t-229 99q-143 0 -234.5 -97t-91.5 -251z"/>
<glyph unicode=":" horiz-adv-x="491" d="M184 0v205h158v-205h-158zM184 780v205h158v-205h-158z"/>
<glyph unicode=";" horiz-adv-x="491" d="M172 -184q84 33 88 184h-76v199h158v-142q0 -145 -38 -216.5t-132 -104.5v80zM184 780v205h158v-205h-158z"/>
<glyph unicode="&lt;" horiz-adv-x="1024" d="M68 629v112l886 410v-129l-749 -338l749 -336v-129z"/>
<glyph unicode="=" d="M100 471v88h916v-88h-916zM100 766v88h916v-88h-916z"/>
<glyph unicode="&gt;" horiz-adv-x="1024" d="M70 219v129l747 338l-747 336v129l886 -410v-112z"/>
<glyph unicode="?" horiz-adv-x="1011" d="M102 942q6 174 66 268q53 88 147.5 136.5t210.5 48.5q176 0 287 -98.5t111 -256.5q0 -131 -76 -231q-31 -39 -154 -156q-76 -70 -97.5 -126t-23.5 -187h-114q2 166 33.5 232.5t185.5 213.5q121 121 121 246q0 115 -77 185.5t-200 70.5q-176 0 -256 -139q-41 -70 -49 -207 h-115zM442 0v190h144v-190h-144z"/>
<glyph unicode="@" horiz-adv-x="1542" d="M94 678q0 301 209 510t508 209q268 0 452.5 -170t184.5 -418q0 -244 -184 -397q-131 -111 -260.5 -111t-145.5 117q-113 -115 -233 -115q-96 0 -157.5 71.5t-61.5 186.5q0 190 124.5 346t276.5 156q135 0 194 -135l37 102h97l-174 -506q-18 -55 -19 -90q0 -74 84 -74 q106 0 213 107q139 139 139 338q0 223 -163.5 375.5t-403.5 152.5q-270 0 -456.5 -189.5t-186.5 -465.5q0 -270 183.5 -456.5t449.5 -186.5q168 0 317.5 85t227.5 224h73q-57 -127 -168 -213q-201 -162 -452 -162q-293 0 -499 206t-206 503zM510 535q0 -80 36 -126.5 t97 -46.5q82 0 152 70q51 53 92 168l47 135q27 74 27 117q0 61 -39 105t-93 44q-117 0 -218 -148t-101 -318z"/>
<glyph unicode="A" horiz-adv-x="1275" d="M18 0l551 1370h146l545 -1370h-146l-164 430h-624l-168 -430h-140zM365 535h546l-196 505q-53 139 -74 207q-43 -115 -76 -200z"/>
<glyph unicode="B" horiz-adv-x="1318" d="M166 0v1366h551q195 0 293 -53q80 -45 125 -121t45 -168q0 -113 -64.5 -193.5t-173.5 -107.5q88 -18 139 -49q152 -94 152 -283q0 -113 -55.5 -203t-157.5 -141q-100 -47 -270 -47h-584zM295 113h407q201 0 283 51q119 76 119 225q0 137 -99.5 201.5t-312.5 64.5h-397 v-542zM295 760h364q162 0 240 26q70 27 111 86.5t41 133.5q0 154 -136 217q-68 31 -223 30h-397v-493z"/>
<glyph unicode="C" horiz-adv-x="1380" d="M94 679.5q0 321.5 176 519.5t461 198q270 0 432 -174q111 -121 127 -267h-129q-33 152 -149.5 240t-284.5 88q-227 0 -365.5 -166t-138.5 -436q0 -272 136.5 -436t363.5 -164q193 0 311.5 114.5t143.5 325.5h129q-23 -252 -181.5 -402.5t-406.5 -150.5q-283 0 -454 194.5 t-171 516z"/>
<glyph unicode="D" horiz-adv-x="1363" d="M166 0v1366h475q276 0 432 -137q197 -180 197 -520q0 -360 -193 -557q-82 -82 -178 -117t-248 -35h-485zM295 113h326q141 0 223 25.5t145 90.5q152 158 152 471q0 283 -146 428q-123 125 -354 125h-346v-1140z"/>
<glyph unicode="E" horiz-adv-x="1198" d="M166 0v1366h948v-113h-819v-489h766v-113h-766v-538h827v-113h-956z"/>
<glyph unicode="F" horiz-adv-x="1075" d="M166 0v1366h872v-113h-743v-489h661v-113h-661v-651h-129z"/>
<glyph unicode="G" horiz-adv-x="1462" d="M92 670q0 324 180.5 525.5t468.5 201.5q229 0 383 -123t185 -330h-127q-27 152 -148 246t-293 94q-236 0 -378 -167t-142 -445q0 -268 142.5 -429t377.5 -161q141 0 251 63.5t165 178.5q55 111 55 264h-467v106h582v-694h-86l-27 254q-61 -135 -187 -210t-292 -75 q-287 0 -465 195t-178 506z"/>
<glyph unicode="H" horiz-adv-x="1404" d="M164 0v1366h129v-594h819v594h129v-1366h-129v659h-819v-659h-129z"/>
<glyph unicode="I" horiz-adv-x="456" d="M164 0v1366h129v-1366h-129z"/>
<glyph unicode="J" horiz-adv-x="950" d="M27 401q0 27 2 54h125q0 -129 8 -172q37 -195 258 -195q147 0 211 94q45 66 45 238v958h129v-975q0 -197 -62 -290q-31 -49 -62.5 -74t-88.5 -39q-88 -25 -184 -25q-121 0 -210 48.5t-130 136.5q-41 83 -41 241z"/>
<glyph unicode="K" horiz-adv-x="1284" d="M166 0v1366h129v-735q49 49 90 86l705 649h174l-615 -557l645 -809h-166l-571 719l-262 -238v-481h-129z"/>
<glyph unicode="L" horiz-adv-x="1097" d="M164 0v1366h129v-1253h770v-113h-899z"/>
<glyph unicode="M" horiz-adv-x="1656" d="M166 0v1366h178l397 -975q66 -176 93 -256q55 156 92 254l389 977h180v-1366h-125v825q0 272 16 430q-16 -45 -36.5 -100t-33.5 -90t-22 -57l-401 -1008h-117l-409 995q-39 100 -91 252q14 -238 15 -418v-829h-125z"/>
<glyph unicode="N" horiz-adv-x="1404" d="M166 0v1366h145l635 -926q111 -160 178 -286q-8 188 -8 360v852h125v-1366h-145l-633 915q-141 217 -180 295q6 -80 6 -133l2 -194v-883h-125z"/>
<glyph unicode="O" horiz-adv-x="1474" d="M94 682q0 324 178.5 519.5t472.5 195.5q279 0 457 -201t178 -516q0 -317 -178 -514t-467 -197q-287 0 -464 197t-177 516zM223 686q0 -272 141.5 -438t373 -166t372.5 165t141 433q0 266 -141 435t-367 169q-236 0 -378 -163t-142 -435z"/>
<glyph unicode="P" horiz-adv-x="1241" d="M166 0v1366h545q207 0 311 -68q156 -106 156 -317q0 -219 -152 -324q-104 -76 -299 -75h-432v-582h-129zM295 694h395q162 0 238 47q121 76 121 234q0 160 -117 231q-76 47 -248 47h-389v-559z"/>
<glyph unicode="Q" horiz-adv-x="1466" d="M94 678q0 319 178.5 519t465 200t464.5 -198t178 -513q0 -342 -202 -545l194 -147l-65 -82l-215 164q-137 -106 -353 -107q-287 0 -466 197t-179 512zM223 682q0 -272 141.5 -436t378.5 -164q141 0 250 72l-182 135l68 84l202 -158q170 184 170 471q0 266 -142 432 t-372 166q-231 0 -372.5 -166t-141.5 -436z"/>
<glyph unicode="R" horiz-adv-x="1351" d="M158 0v1366h600q180 0 282 -61q160 -100 160 -308q0 -131 -69.5 -219t-196.5 -119q113 -16 174 -90q39 -55 50 -104t24 -234q14 -184 55 -231h-145q-29 43 -35 188q-8 170 -23.5 235.5t-60.5 113.5q-68 74 -285 73h-401v-610h-129zM287 715h385q195 0 280 49 q119 70 119 225q0 160 -131 225q-76 39 -223 39h-430v-538z"/>
<glyph unicode="S" horiz-adv-x="1202" d="M55 438v15h125q6 -158 76 -242q111 -133 354 -133q178 0 278.5 74.5t100.5 207.5q0 150 -160 215q-82 35 -301 84q-231 55 -311 111q-119 84 -119 250q0 174 128 275.5t349 101.5q229 0 357.5 -110.5t138.5 -313.5h-125q-27 315 -381 315q-160 0 -250 -68.5t-90 -191.5 q0 -117 84 -168q76 -45 285 -92q264 -59 352 -109q168 -100 168 -286q0 -193 -156 -307q-129 -96 -358 -97q-254 0 -399.5 125t-145.5 344z"/>
<glyph unicode="T" horiz-adv-x="1146" d="M29 1253v113h1089v-113h-479v-1253h-129v1253h-481z"/>
<glyph unicode="U" horiz-adv-x="1351" d="M145 551v815h129v-819q0 -215 64 -316q98 -154 348 -153q238 0 330 147q63 100 63 324v817h129v-819q0 -145 -18.5 -225t-67.5 -156q-135 -197 -438 -197q-336 0 -467 221q-72 119 -72 361z"/>
<glyph unicode="V" horiz-adv-x="1206" d="M18 1366h146l356 -983q6 -18 55 -162q12 -49 33 -110q49 166 86 270l357 985h139l-508 -1366h-152z"/>
<glyph unicode="W" horiz-adv-x="1787" d="M29 1366h137l252 -948q51 -207 65 -283q14 80 68 285l270 946h150l276 -960q16 -61 27 -109q6 -25 22 -94q8 -27 15 -68q16 86 61 268l258 963h131l-379 -1366h-141l-276 963q-55 205 -70 280q-29 -117 -74 -276l-274 -967h-141z"/>
<glyph unicode="X" horiz-adv-x="1169" d="M12 0l496 702l-465 664h154l303 -436q31 -47 86 -137q29 45 32 51q16 27 30 46t18 26.5t8 13.5l311 436h145l-466 -664l493 -702h-158l-342 489q-14 25 -73 117q-2 -4 -5.5 -8t-5.5 -8l-2 -2q-10 -16 -30 -45q-4 -6 -16.5 -23.5t-18.5 -27.5l-344 -492h-150z"/>
<glyph unicode="Y" horiz-adv-x="1185" d="M-12 1366h157l381 -571q33 -49 72 -121q61 104 72 117l381 575h149l-541 -801v-565h-129v565z"/>
<glyph unicode="Z" horiz-adv-x="1175" d="M57 0v117l838 1063l35 41q2 2 6 7t11 13t11 14q-121 -2 -180 -2h-657v113h985v-115l-832 -1054q-10 -14 -30 -39q-2 -2 -8.5 -9.5t-14.5 -19.5t-16 -20q35 2 80 2l116 2h723v-113h-1067z"/>
<glyph unicode="[" horiz-adv-x="567" d="M152 -367v1733h309v-96h-197v-1540h197v-97h-309z"/>
<glyph unicode="\" horiz-adv-x="806" d="M76 1366h98l709 -1733h-103z"/>
<glyph unicode="]" horiz-adv-x="567" d="M106 -270h197v1540h-197v96h310v-1733h-310v97z"/>
<glyph unicode="^" horiz-adv-x="1024" d="M72 776l366 592h148l366 -592h-125l-317 504l-313 -504h-125z"/>
<glyph unicode="_" horiz-adv-x="1024" d="M0 -154h1024v-88h-1024v88z"/>
<glyph unicode="`" horiz-adv-x="1024" d="M260 1405h148l190 -272h-96z"/>
<glyph unicode="a" horiz-adv-x="1021" d="M68 250q0 195 186 266q53 23 101 30t245 27q88 8 122 35t34 90q0 111 -62.5 163t-195.5 52q-127 0 -191.5 -55t-77.5 -176h-116q8 160 111.5 246t285.5 86q135 0 229.5 -49.5t118.5 -130.5q14 -47 14 -162v-441q0 -92 11.5 -115.5t56.5 -23.5q18 0 45 8v-94 q-43 -14 -96 -14q-70 0 -98.5 41t-28.5 139q-127 -201 -373 -201q-150 0 -235.5 75t-85.5 204zM188 262q0 -88 63.5 -140t166.5 -52q147 0 242.5 87t95.5 220v162q-29 -27 -75 -38.5t-198 -31.5q-158 -20 -226.5 -68.5t-68.5 -138.5z"/>
<glyph unicode="b" horiz-adv-x="1146" d="M152 0v1366h120v-565q45 102 136.5 157.5t216.5 55.5q201 0 320.5 -140.5t119.5 -377.5q0 -242 -120 -383.5t-324 -141.5q-262 0 -357 222v-193h-112zM268 494q0 -193 92.5 -307.5t247.5 -114.5q154 0 245 114.5t91 307.5q0 190 -91 304.5t-241 114.5q-160 0 -252 -112 t-92 -307z"/>
<glyph unicode="c" horiz-adv-x="1017" d="M84 483q0 242 125 386.5t334 144.5q172 0 278.5 -89t126.5 -251h-123q-47 240 -280 239q-156 0 -248 -114.5t-92 -307t89 -306t241 -113.5q123 0 201.5 73.5t97.5 206.5h120q-25 -180 -135 -280.5t-280 -100.5q-207 0 -331 140.5t-124 371.5z"/>
<glyph unicode="d" horiz-adv-x="1148" d="M84 494q0 238 121 379t321 141q250 0 351 -211v563h120v-1366h-112v197q-104 -225 -355 -226q-205 0 -325.5 141.5t-120.5 381.5zM205 494q0 -193 91 -307.5t245 -114.5q158 0 249 113.5t91 306.5q0 201 -95 309q-96 113 -241 112q-158 0 -249 -112t-91 -307z"/>
<glyph unicode="e" horiz-adv-x="1044" d="M84 481q0 236 126 384.5t325 148.5q127 0 226 -64.5t154 -183.5q53 -115 54 -303h-764q4 -188 91 -289.5t243 -101.5q240 0 303 254h114q-35 -170 -143 -262.5t-276 -92.5q-207 0 -330 139.5t-123 370.5zM207 563h639q-8 162 -93 256t-222.5 94t-220.5 -90t-103 -260z "/>
<glyph unicode="f" horiz-adv-x="532" d="M0 885v100h168v84q0 154 35 209q59 98 215 98q45 0 94 -8v-102q-49 8 -80 8q-96 0 -125 -53q-18 -31 -18 -138v-98h198v-100h-198v-885h-121v885h-168z"/>
<glyph unicode="g" horiz-adv-x="1122" d="M84 504q0 229 120 369.5t318 140.5q221 0 336 -213v184h113v-891q0 -201 -60 -303q-104 -178 -385 -178q-182 0 -287.5 78t-115.5 221h121q31 -201 284 -201q168 0 246 85t78 270v163q-102 -215 -342 -215q-195 0 -310.5 133.5t-115.5 356.5zM205 516q0 -184 86 -292.5 t233.5 -108.5t236.5 109.5t89 291.5q0 180 -86 288.5t-232 108.5q-152 0 -239.5 -106.5t-87.5 -290.5z"/>
<glyph unicode="h" horiz-adv-x="1099" d="M152 0v1366h120v-448q0 -18 -2 -117q100 213 342 213q207 0 295 -146q49 -76 49 -233v-635h-120v618q0 135 -43 199q-70 92 -211 92q-182 0 -263 -153q-47 -88 -47 -273v-483h-120z"/>
<glyph unicode="i" horiz-adv-x="419" d="M150 0v985h120v-985h-120zM150 1174v192h120v-192h-120z"/>
<glyph unicode="j" horiz-adv-x="421" d="M-27 -272q20 -4 45 -4q84 0 108 36.5t24 169.5v1055h120v-1051q0 -104 -9 -154t-36 -85q-53 -74 -194 -74q-23 0 -58 6v101zM150 1174v192h120v-192h-120z"/>
<glyph unicode="k" horiz-adv-x="1030" d="M152 0v1366h120v-862q27 27 41 39q29 29 33 30l475 412h162l-422 -362l451 -623h-152l-391 541l-197 -168v-373h-120z"/>
<glyph unicode="l" horiz-adv-x="419" d="M150 0v1366h120v-1366h-120z"/>
<glyph unicode="m" horiz-adv-x="1662" d="M152 0v985h112v-172q70 109 145.5 155t182.5 46q215 0 285 -193q113 193 327 193q172 0 258 -113q57 -76 58 -223v-678h-121v645q0 119 -31 170q-55 94 -197 94q-166 0 -237 -135q-37 -74 -37 -207v-567h-121v643q0 113 -26 166q-51 100 -191 100q-172 0 -248 -147 q-39 -80 -39 -219v-543h-120z"/>
<glyph unicode="n" horiz-adv-x="1097" d="M152 0v985h112v-184q45 76 82 110q102 102 268 103q205 0 291 -135q51 -78 51 -246v-633h-120v596q0 166 -43 223q-63 90 -205 90q-90 0 -162 -41t-109 -112q-45 -84 -45 -260v-496h-120z"/>
<glyph unicode="o" horiz-adv-x="1101" d="M84 492q0 240 129 381t346 141q209 0 334 -143.5t125 -381t-126 -378t-339 -140.5t-341 141.5t-128 379.5zM207 492q0 -193 94 -306.5t254 -113.5q156 0 249 113.5t93 306.5q0 190 -93 305.5t-247 115.5q-162 0 -256 -113t-94 -308z"/>
<glyph unicode="p" horiz-adv-x="1144" d="M152 -367v1352h112v-188q115 217 352 217q203 0 325 -143.5t122 -381.5q0 -233 -121 -375.5t-319 -142.5q-254 0 -351 213v-551h-120zM268 489q0 -193 92.5 -305t247.5 -112q152 0 243 114.5t91 302.5q0 193 -91 308.5t-243 115.5q-160 0 -250 -112.5t-90 -311.5z"/>
<glyph unicode="q" horiz-adv-x="1144" d="M86 487q0 242 122 384.5t327 142.5q182 0 284 -115q33 -39 66 -102v188h112v-1352h-120v549q-100 -211 -353 -211q-201 0 -319.5 139t-118.5 377zM207 487q0 -190 90 -302.5t244 -112.5q156 0 248 113.5t92 308.5q0 193 -90.5 306t-241.5 113q-160 0 -251 -113.5 t-91 -312.5z"/>
<glyph unicode="r" horiz-adv-x="632" d="M152 0v985h112v-235q106 250 365 250q6 0 12 -1v-120h-31q-158 0 -252 -111q-51 -57 -68.5 -133t-17.5 -232v-403h-120z"/>
<glyph unicode="s" horiz-adv-x="919" d="M47 322h117q18 -250 291 -250q121 0 195.5 52t74.5 138q0 74 -57.5 115t-212.5 78q-205 47 -269 84q-111 59 -110 196q0 129 97 204t261 75q209 0 305 -115q61 -70 70 -199h-119q-10 111 -73.5 162t-190.5 51q-109 0 -170 -45t-61 -123q0 -72 54 -106.5t228 -73.5 q184 -43 262 -94q104 -68 105 -199q0 -135 -107.5 -218t-283.5 -83q-190 0 -296 91.5t-110 259.5z"/>
<glyph unicode="t" horiz-adv-x="538" d="M-18 885v100h172v303h120v-303h205v-100h-205v-623q0 -102 24 -133t101 -31q27 0 80 6v-104q-66 -6 -108 -6q-147 0 -193 80q-25 45 -24 250v561h-172z"/>
<glyph unicode="u" horiz-adv-x="1095" d="M143 350v635h121v-584q0 -135 25 -198q23 -57 84 -92t139 -35q166 0 254 137q57 94 57 266v506h121v-985h-113v184q-119 -213 -346 -213q-178 0 -274 119q-68 86 -68 260z"/>
<glyph unicode="v" horiz-adv-x="884" d="M6 985h129l230 -598q16 -43 90 -268q70 215 92 276l211 590h123l-363 -985h-131z"/>
<glyph unicode="w" horiz-adv-x="1423" d="M16 985h131l189 -600q45 -158 70 -256q51 221 63 260l176 596h139l187 -625q20 -70 57 -229q31 133 59 225l197 629h125l-322 -985h-129l-196 647q-25 86 -49 195q-33 -135 -49 -193l-193 -649h-133z"/>
<glyph unicode="x" horiz-adv-x="921" d="M0 0l381 518l-352 467h153l213 -289q10 -14 62 -90q53 78 63 90l217 289h144l-351 -459l390 -526h-152l-264 360q-25 37 -49 76l-25 -37l-24 -37l-263 -362h-143z"/>
<glyph unicode="y" horiz-adv-x="894" d="M6 985h133l267 -678q25 -63 59 -174q43 135 61 186l242 666h123l-387 -1024q-70 -184 -109 -244q-61 -92 -182 -92q-41 0 -80 6l-27 2v107q49 -12 87 -12q55 0 93 33.5t66 109.5q27 66 35 88q18 35 19 41q0 4 -3 6z"/>
<glyph unicode="z" horiz-adv-x="894" d="M47 0v98l578 709q20 25 41 45q0 2 4 7t11 13.5t11 14.5l-37 -2h-41h-524v100h756v-86l-588 -721l-31 -35q-2 -2 -7 -8t-13 -16t-14 -19h104h575v-100h-825z"/>
<glyph unicode="{" horiz-adv-x="567" d="M35 455v94q63 18 90 61t27 127v350q0 147 66.5 213t217.5 66h23v-96h-23q-92 0 -133 -45q-39 -41 -39 -148v-346q0 -96 -24.5 -147.5t-87.5 -85.5q63 -33 87.5 -86.5t24.5 -151.5v-330q0 -123 47 -163q41 -37 125 -37h23v-97h-23q-156 0 -220 69t-64 237v321 q0 88 -27 132.5t-90 62.5z"/>
<glyph unicode="|" horiz-adv-x="1024" d="M449 -342v1708h129v-1708h-129z"/>
<glyph unicode="}" horiz-adv-x="567" d="M111 -270h22q90 0 131 45q39 41 39 147v346q0 96 24.5 147.5t88.5 86.5q-63 33 -88 86t-25 151v330q0 121 -45 164q-41 37 -125 37h-22v96h22q156 0 219.5 -68.5t63.5 -236.5v-322q0 -90 26.5 -133t92.5 -61v-94q-66 -18 -92.5 -61.5t-26.5 -127.5v-350 q0 -147 -66.5 -213t-216.5 -66h-22v97z"/>
<glyph unicode="~" horiz-adv-x="1366" d="M195 1257q109 219 272 220q80 0 238 -84q141 -72 198 -72q59 0 104.5 37t94.5 123l72 -56q-102 -219 -283 -219q-43 0 -89 17.5t-169 81.5q-109 57 -172 57q-104 0 -195 -160z"/>
<glyph unicode="¡" horiz-adv-x="538" d="M178 795v190h144v-190h-144zM184 20l29 623h72l28 -623v-399h-129v399z"/>
<glyph unicode="¢" d="M131 698q0 283 172 424q84 72 236 99v168h88v-168q156 -6 259 -100.5t118 -239.5h-123q-14 100 -84 164.5t-170 74.5v-837q102 4 176 80.5t88 195.5h117q-16 -160 -123 -265.5t-258 -111.5v-205h-88v205q-193 20 -300.5 156.5t-107.5 359.5zM256 705q0 -178 72.5 -286 t210.5 -136v833q-135 -25 -209 -132t-74 -279z"/>
<glyph unicode="£" d="M125 70q215 166 215 354q0 78 -47 188h-162v88h111q-59 104 -79 162t-20 129q0 162 122 265.5t317 103.5q215 0 330.5 -118t115.5 -335h-119q-2 168 -88 258t-241 90q-137 0 -224.5 -74.5t-87.5 -193.5q0 -88 70 -219l20 -41q2 -2 15 -27h313v-88h-266q37 -76 37 -166 t-41 -165.5t-142 -167.5l-26 -27q78 39 118 50t93 11q51 0 87 -8t156 -49q49 -16 97 -16q117 0 221 98l61 -90q-115 -119 -282 -119q-51 0 -86 8.5t-150 48.5q-86 31 -157 31q-94 0 -213 -82z"/>
<glyph unicode="¤" horiz-adv-x="1366" d="M125 1208l70 70l188 -188q147 109 299 108q154 0 295 -108l190 188l70 -70l-190 -188q106 -137 106 -293t-104 -293l190 -190l-70 -68l-190 191q-135 -109 -295 -109q-150 0 -297 107l-188 -189l-68 68l186 190q-106 137 -106 295q0 154 106 291zM324 727 q0 -150 105.5 -255t252.5 -105q150 0 254 105.5t104 255t-104.5 256t-249.5 106.5q-152 0 -257 -105.5t-105 -257.5z"/>
<glyph unicode="¥" d="M59 1325h136l305 -532q16 -27 63 -119q43 84 62 114l305 537h129l-318 -547h277v-82h-326l-76 -131v-100h361v-82h-361v-383h-112v383h-363v82h363v100l-78 131h-326v82h279z"/>
<glyph unicode="¦" horiz-adv-x="1024" d="M449 313h129v-655h-129v655zM449 688v678h129v-678h-129z"/>
<glyph unicode="§" d="M113 594q0 96 55 170t151 104q-96 88 -96 201q0 123 92.5 202t237.5 79q164 0 254 -88t94 -252h-117q-14 240 -233 239q-94 0 -151.5 -49t-57.5 -127q0 -88 88 -153q27 -18 234 -140q201 -115 271.5 -192.5t70.5 -181.5q0 -92 -54.5 -165t-154.5 -112q111 -98 110 -219 q0 -127 -95 -208t-247 -81q-170 0 -263 91t-101 263h118q16 -254 250 -254q94 0 155.5 51.5t61.5 131.5q0 100 -139 194q-47 33 -293 174q-131 76 -186 151t-55 171zM225 604q0 -80 76 -147q47 -43 248 -158q139 -84 174 -111q168 59 168 199q0 84 -76 150.5t-344 218.5 q-55 31 -82 53q-164 -74 -164 -205z"/>
<glyph unicode="¨" horiz-adv-x="1024" d="M276 1174v194h123v-194h-123zM623 1174v194h122v-194h-122z"/>
<glyph unicode="©" horiz-adv-x="1613" d="M94 682q0 299 210 507t513 208q287 0 495 -211t208 -504q0 -295 -209 -504t-504 -209q-293 0 -503 209t-210 504zM172 682q0 -266 186.5 -454.5t448.5 -188.5t448.5 189.5t186.5 455.5q0 262 -185.5 452.5t-441.5 190.5q-270 0 -456.5 -187.5t-186.5 -457.5zM442 682 q0 182 107.5 295t281.5 113q139 0 235.5 -73t109.5 -188h-93q-20 86 -86.5 134.5t-167.5 48.5q-133 0 -213.5 -90.5t-80.5 -237.5q0 -150 79.5 -240t212.5 -90q113 0 181.5 63.5t85.5 184.5h92q-12 -150 -109.5 -238t-251.5 -88q-174 0 -278.5 112t-104.5 294z"/>
<glyph unicode="ª" horiz-adv-x="747" d="M70 608v68h608v-68h-608zM119 963q0 109 108 149q39 16 195 31q47 4 64.5 17.5t17.5 45.5q0 109 -137 109q-72 0 -106 -30t-40 -97h-78q10 195 232 194q119 0 172 -57q37 -37 37 -133l-2 -168q0 -106 4 -123.5t26 -17.5q10 0 33 6v-64q-27 -10 -59 -10q-72 0 -78 82 q-70 -92 -203 -92q-86 0 -136 42t-50 116zM201 969q0 -45 32.5 -71t90.5 -26q78 0 129 44.5t51 113.5v72q-47 -16 -88 -21q-123 -16 -158 -32q-57 -25 -57 -80z"/>
<glyph unicode="«" horiz-adv-x="794" d="M100 449v116l256 240v-125l-180 -174l180 -170v-131zM410 446v117l256 242v-125l-181 -174l181 -172v-127z"/>
<glyph unicode="¬" horiz-adv-x="1024" d="M68 449v112h886v-561h-125v449h-761z"/>
<glyph unicode="­" horiz-adv-x="454" d="M0 451v108h455v-108h-455z"/>
<glyph unicode="®" horiz-adv-x="1613" d="M94 682q0 299 210 507t513 208q287 0 495 -211t208 -504q0 -295 -209 -504t-504 -209q-293 0 -503 209t-210 504zM172 682q0 -266 186.5 -454.5t448.5 -188.5t448.5 189.5t186.5 455.5q0 262 -185.5 452.5t-441.5 190.5q-270 0 -456.5 -187.5t-186.5 -457.5zM516 293v780 h367q133 0 203.5 -55t70.5 -158q0 -137 -135 -188q70 -25 93.5 -70t29.5 -172q6 -66 14 -91.5t29 -45.5h-109q-18 25 -24 113q-8 150 -45 189.5t-168 39.5h-234v-342h-92zM608 709h223q125 0 179.5 33.5t54.5 111.5q0 141 -207 141h-250v-286z"/>
<glyph unicode="¯" horiz-adv-x="1024" d="M244 1229v86h538v-86h-538z"/>
<glyph unicode="°" horiz-adv-x="765" d="M92 1069q0 121 86 206t209 85q119 0 204 -86t85 -207t-86 -206t-205 -85q-121 0 -207 86t-86 207zM172 1069q0 -88 62.5 -151.5t150.5 -63.5q86 0 148.5 62.5t62.5 146.5q0 92 -62.5 155.5t-152.5 63.5q-84 0 -146.5 -63.5t-62.5 -149.5z"/>
<glyph unicode="±" d="M100 102v88h916v-88h-916zM100 721v88h414v414h88v-414h414v-88h-414v-414h-88v414h-414z"/>
<glyph unicode="²" horiz-adv-x="729" d="M76 547q8 113 61 180.5t205 157.5q121 76 162 125t41 116q0 72 -48 115t-128 43q-178 0 -185 -221h-88v18q0 127 75 202t202 75q119 0 190.5 -63.5t71.5 -170.5q0 -90 -56.5 -156.5t-216.5 -162.5q-94 -57 -133 -95t-53 -85h463v-78h-563z"/>
<glyph unicode="³" horiz-adv-x="729" d="M61 813h86v-14v-6q2 -86 58.5 -138.5t146.5 -52.5q88 0 145.5 48t57.5 122q0 160 -213 160h-47v74q18 -2 41 -2q188 0 188 139q0 63 -46 102t-124 39q-182 0 -188 -201h-86q10 274 278 275q115 0 185.5 -58.5t70.5 -154.5q0 -121 -118 -170q150 -41 149 -195 q0 -113 -81 -182.5t-212 -69.5q-143 0 -218 73t-73 212z"/>
<glyph unicode="´" horiz-adv-x="1024" d="M424 1133l192 272h146l-242 -272h-96z"/>
<glyph unicode="µ" horiz-adv-x="1024" d="M113 -338v1321h112v-567q0 -109 15.5 -163t58.5 -99q82 -86 199 -86q133 0 216 103t83 267v545h112v-983h-112v201q-90 -229 -301 -230q-172 0 -271 160v-469h-112z"/>
<glyph unicode="¶" d="M90 999q0 102 44 184.5t122 127.5q96 55 262 55h477v-92h-88v-1641h-116v1641h-191v-1641h-117v1008h-32q-158 0 -259.5 100t-101.5 258z"/>
<glyph unicode="·" horiz-adv-x="456" d="M150 403v205h157v-205h-157z"/>
<glyph unicode="¸" horiz-adv-x="1024" d="M319 -350l27 57q74 -31 135 -31q53 0 85 24t32 62q0 35 -27.5 56.5t-72.5 21.5q-33 0 -80 -16l-29 29l115 147h63l-82 -106q49 6 70 6q68 0 109 -35t41 -92q0 -74 -56.5 -118t-152.5 -44q-79 0 -177 39z"/>
<glyph unicode="¹" horiz-adv-x="729" d="M160 1135v67q133 4 174 29.5t61 118.5h72v-803h-92v588h-25h-82h-67h-41z"/>
<glyph unicode="º" horiz-adv-x="747" d="M70 608v68h608v-68h-608zM106 1092q0 131 74 209.5t199 78.5q119 0 191.5 -78.5t72.5 -209.5t-72.5 -209t-195.5 -78q-121 0 -195 78t-74 209zM188 1091.5q0 -102.5 50.5 -161t138.5 -58.5q84 0 134 59.5t50 160t-50 161t-132 60.5q-88 0 -139.5 -59.5t-51.5 -162z"/>
<glyph unicode="»" horiz-adv-x="794" d="M129 207v125l180 174l-180 172v125l256 -238v-116zM436 205v127l182 172l-182 170v131l258 -244v-115z"/>
<glyph unicode="¼" horiz-adv-x="1757" d="M160 1135v67q135 4 176 28.5t61 119.5h72v-803h-92v588h-25h-84h-67h-41zM428 0l813 1341h88l-809 -1341h-92zM1092 195v75l393 533h74v-537h124v-71h-124v-195h-84v195h-383zM1174 266h301v414z"/>
<glyph unicode="½" horiz-adv-x="1757" d="M160 1135v67q135 4 176 28.5t61 119.5h72v-803h-92v588h-25h-84h-67h-41zM428 0l813 1341h88l-809 -1341h-92zM1106 0q8 111 61.5 179.5t204.5 158.5q119 76 161 126t42 116q0 72 -48 114.5t-128 42.5q-178 0 -185 -219h-88v19q0 127 74 201.5t203 74.5 q121 0 191.5 -62.5t70.5 -168.5q0 -92 -56.5 -159t-215.5 -165q-94 -57 -133 -95t-54 -85h463v-78h-563z"/>
<glyph unicode="¾" horiz-adv-x="1757" d="M61 813h86v-14v-6q2 -86 58.5 -138.5t146.5 -52.5q88 0 145.5 48t57.5 122q0 160 -213 160h-47v74q18 -2 41 -2q188 0 188 139q0 63 -46 102t-124 39q-182 0 -188 -201h-86q10 274 278 275q115 0 185.5 -58.5t70.5 -154.5q0 -121 -118 -170q150 -41 149 -195 q0 -113 -81 -182.5t-212 -69.5q-143 0 -218 73t-73 212zM428 0l811 1341h90l-811 -1341h-90zM1092 195v75l393 533h74v-537h124v-71h-124v-195h-84v195h-383zM1174 266h301v414z"/>
<glyph unicode="¿" horiz-adv-x="1011" d="M88 -55q0 131 76 231q31 41 153 156q76 70 97.5 126t23.5 187h115q-2 -166 -34 -232.5t-185 -213.5q-121 -121 -121 -246q0 -115 77 -185.5t199 -70.5q176 0 256 139q41 70 50 207h114q-6 -174 -65 -268q-53 -88 -147.5 -136.5t-211.5 -48.5q-176 0 -286.5 98.5 t-110.5 256.5zM426 795v190h143v-190h-143z"/>
<glyph unicode="À" horiz-adv-x="1275" d="M18 0l551 1370h146l545 -1370h-146l-164 430h-624l-168 -430h-140zM365 535h546l-196 505q-53 139 -74 207q-43 -115 -76 -200zM367 1737h157l211 -258h-100z"/>
<glyph unicode="Á" horiz-adv-x="1275" d="M18 0l551 1370h146l545 -1370h-146l-164 430h-624l-168 -430h-140zM365 535h546l-196 505q-53 139 -74 207q-43 -115 -76 -200zM588 1479l213 258h157l-270 -258h-100z"/>
<glyph unicode="Â" horiz-adv-x="1275" d="M18 0l551 1370h146l545 -1370h-146l-164 430h-624l-168 -430h-140zM340 1479l235 258h125l238 -258h-121l-182 186l-186 -186h-109zM365 535h546l-196 505q-53 139 -74 207q-43 -115 -76 -200z"/>
<glyph unicode="Ã" horiz-adv-x="1275" d="M18 0l551 1370h146l545 -1370h-146l-164 430h-624l-168 -430h-140zM350 1509q33 184 176 185q53 0 127 -37q100 -49 135 -49q68 0 93 94h73q-35 -184 -166 -184q-37 0 -69.5 11t-130.5 58q-37 16 -70 17q-70 0 -96 -95h-72zM365 535h546l-196 505q-53 139 -74 207 q-43 -115 -76 -200z"/>
<glyph unicode="Ä" horiz-adv-x="1275" d="M18 0l551 1370h146l545 -1370h-146l-164 430h-624l-168 -430h-140zM365 535h546l-196 505q-53 139 -74 207q-43 -115 -76 -200zM367 1509v191h129v-191h-129zM782 1509v191h129v-191h-129z"/>
<glyph unicode="Å" horiz-adv-x="1275" d="M18 0l551 1370h146l545 -1370h-146l-164 430h-624l-168 -430h-140zM365 535h546l-196 505q-53 139 -74 207q-43 -115 -76 -200zM440 1640q0 82 59.5 139.5t143.5 57.5q80 0 137.5 -58.5t57.5 -140.5t-58.5 -140t-140.5 -58q-84 0 -141.5 58t-57.5 142zM520 1638 q0 -49 35 -83.5t84 -34.5t84 34.5t35 84t-35 84t-82 34.5q-51 0 -86 -34t-35 -85z"/>
<glyph unicode="Æ" horiz-adv-x="1789" d="M2 0l713 1366h987v-113h-705v-489h658v-113h-658v-538h713v-113h-842v446h-489l-227 -446h-150zM432 555h436v698h-80z"/>
<glyph unicode="Ç" horiz-adv-x="1380" d="M94 678q0 307 168 508q174 211 469 211q221 0 372.5 -120t184.5 -321h-129q-33 150 -149.5 239t-280.5 89q-227 0 -366.5 -166t-139.5 -436q0 -272 136.5 -437t361.5 -165q190 0 316 122t141 320h129q-20 -252 -180 -402.5t-404 -150.5l-64 -84q47 8 70 9q63 0 106.5 -36 t43.5 -89q0 -72 -58.5 -118t-150.5 -46q-80 0 -181 39l27 57q74 -31 141 -31q49 0 81 24.5t32 63.5q0 33 -27.5 54.5t-70.5 21.5q-35 0 -82 -18l-31 28l96 129q-256 18 -408.5 210t-152.5 495z"/>
<glyph unicode="È" horiz-adv-x="1198" d="M166 0v1366h948v-113h-819v-489h766v-113h-766v-538h827v-113h-956zM399 1737h158l213 -258h-100z"/>
<glyph unicode="É" horiz-adv-x="1198" d="M166 0v1366h948v-113h-819v-489h766v-113h-766v-538h827v-113h-956zM555 1479l211 258h158l-269 -258h-100z"/>
<glyph unicode="Ê" horiz-adv-x="1198" d="M166 0v1366h948v-113h-819v-489h766v-113h-766v-538h827v-113h-956zM344 1479l236 258h125l237 -258h-121l-182 186l-184 -186h-111z"/>
<glyph unicode="Ë" horiz-adv-x="1198" d="M166 0v1366h948v-113h-819v-489h766v-113h-766v-538h827v-113h-956zM369 1509v191h129v-191h-129zM782 1509v191h129v-191h-129z"/>
<glyph unicode="Ì" horiz-adv-x="456" d="M-10 1737h149l178 -258h-92zM166 0v1366h129v-1366h-129z"/>
<glyph unicode="Í" horiz-adv-x="456" d="M164 0v1366h129v-1366h-129zM188 1479l179 258h149l-235 -258h-93z"/>
<glyph unicode="Î" horiz-adv-x="456" d="M-29 1479l195 258h125l190 -258h-114l-142 186l-145 -186h-109zM164 0v1366h129v-1366h-129z"/>
<glyph unicode="Ï" horiz-adv-x="456" d="M39 1509v191h129v-191h-129zM164 0v1366h129v-1366h-129zM289 1509v191h129v-191h-129z"/>
<glyph unicode="Ð" horiz-adv-x="1363" d="M23 664v108h143v594h475q276 0 432 -137q197 -180 197 -520q0 -360 -193 -557q-82 -82 -178 -117t-248 -35h-485v664h-143zM295 113h326q141 0 222 25.5t146 90.5q152 158 152 473q0 281 -146 426q-123 125 -354 125h-346v-481h410v-108h-410v-551z"/>
<glyph unicode="Ñ" horiz-adv-x="1404" d="M166 0v1366h145l635 -926q111 -160 178 -286q-8 188 -8 360v852h125v-1366h-145l-633 915q-141 217 -180 295q6 -80 6 -133l2 -194v-883h-125zM420 1509q35 184 176 185q53 0 127 -37q100 -49 135 -49q68 0 92 94h74q-35 -184 -166 -184q-55 0 -201 69q-37 16 -69 17 q-72 0 -94 -95h-74z"/>
<glyph unicode="Ò" horiz-adv-x="1474" d="M94 682q0 324 178.5 519.5t472.5 195.5q279 0 457 -201t178 -516q0 -317 -178 -514t-467 -197q-287 0 -464 197t-177 516zM223 686q0 -272 141.5 -438t373 -166t372.5 165t141 433q0 266 -141 435t-367 169q-236 0 -378 -163t-142 -435zM483 1737h158l213 -258h-100z"/>
<glyph unicode="Ó" horiz-adv-x="1474" d="M94 682q0 324 178.5 519.5t472.5 195.5q279 0 457 -201t178 -516q0 -317 -178 -514t-467 -197q-287 0 -464 197t-177 516zM223 686q0 -272 141.5 -438t373 -166t372.5 165t141 433q0 266 -141 435t-367 169q-236 0 -378 -163t-142 -435zM647 1479l213 258h158l-270 -258 h-101z"/>
<glyph unicode="Ô" horiz-adv-x="1474" d="M94 682q0 324 178.5 519.5t472.5 195.5q279 0 457 -201t178 -516q0 -317 -178 -514t-467 -197q-287 0 -464 197t-177 516zM223 686q0 -272 141.5 -438t373 -166t372.5 165t141 433q0 266 -141 435t-367 169q-236 0 -378 -163t-142 -435zM438 1479l236 258h125l237 -258 h-121l-182 186l-186 -186h-109z"/>
<glyph unicode="Õ" horiz-adv-x="1474" d="M94 682q0 324 178.5 519.5t472.5 195.5q279 0 457 -201t178 -516q0 -317 -178 -514t-467 -197q-287 0 -464 197t-177 516zM223 686q0 -272 141.5 -438t373 -166t372.5 165t141 433q0 266 -141 435t-367 169q-236 0 -378 -163t-142 -435zM455 1509q35 184 176 185 q53 0 127 -37q100 -49 135 -49q68 0 92 94h74q-35 -184 -166 -184q-55 0 -201 69q-37 16 -69 17q-70 0 -95 -95h-73z"/>
<glyph unicode="Ö" horiz-adv-x="1474" d="M94 682q0 324 178.5 519.5t472.5 195.5q279 0 457 -201t178 -516q0 -317 -178 -514t-467 -197q-287 0 -464 197t-177 516zM223 686q0 -272 141.5 -438t373 -166t372.5 165t141 433q0 266 -141 435t-367 169q-236 0 -378 -163t-142 -435zM465 1509v191h129v-191h-129z M881 1509v191h129v-191h-129z"/>
<glyph unicode="×" d="M170 336l326 326l-326 327l63 62l326 -326l326 326l63 -62l-325 -327l325 -326l-63 -64l-326 328l-326 -328z"/>
<glyph unicode="Ø" horiz-adv-x="1474" d="M94 39l148 164q-147 199 -148 479q0 319 177.5 517t463.5 198q262 0 434 -166l140 158l69 -64l-145 -166q147 -197 147 -479q0 -317 -178 -514t-467 -197q-254 0 -428 162l-143 -154zM223 688q0 -238 109 -395l751 854q-156 137 -346 137q-231 0 -372.5 -165t-141.5 -431 zM393 215q158 -133 344 -133q231 0 372.5 165t141.5 433q0 233 -110 395z"/>
<glyph unicode="Ù" horiz-adv-x="1351" d="M145 551v815h129v-819q0 -215 64 -316q98 -154 348 -153q238 0 330 147q63 100 63 324v817h129v-819q0 -145 -18.5 -225t-67.5 -156q-135 -197 -438 -197q-336 0 -467 221q-72 119 -72 361zM422 1737h158l213 -258h-101z"/>
<glyph unicode="Ú" horiz-adv-x="1351" d="M145 551v815h129v-819q0 -215 64 -316q98 -154 348 -153q238 0 330 147q63 100 63 324v817h129v-819q0 -145 -18.5 -225t-67.5 -156q-135 -197 -438 -197q-336 0 -467 221q-72 119 -72 361zM604 1479l213 258h156l-268 -258h-101z"/>
<glyph unicode="Û" horiz-adv-x="1351" d="M145 551v815h129v-819q0 -215 64 -316q98 -154 348 -153q238 0 330 147q63 100 63 324v817h129v-819q0 -145 -18.5 -225t-67.5 -156q-135 -197 -438 -197q-336 0 -467 221q-72 119 -72 361zM379 1479l235 258h125l238 -258h-123l-180 186l-187 -186h-108z"/>
<glyph unicode="Ü" horiz-adv-x="1351" d="M145 551v815h129v-819q0 -215 64 -316q98 -154 348 -153q238 0 330 147q63 100 63 324v817h129v-819q0 -145 -18.5 -225t-67.5 -156q-135 -197 -438 -197q-336 0 -467 221q-72 119 -72 361zM403 1509v191h129v-191h-129zM819 1509v191h129v-191h-129z"/>
<glyph unicode="Ý" horiz-adv-x="1185" d="M-12 1366h157l381 -571q33 -49 72 -121q61 104 72 117l381 575h149l-541 -801v-565h-129v565zM506 1479l213 258h158l-271 -258h-100z"/>
<glyph unicode="Þ" horiz-adv-x="1247" d="M166 0v1366h129v-205h416q207 0 311 -67q156 -106 156 -318q0 -219 -152 -323q-104 -76 -301 -76h-430v-377h-129zM295 489h395q160 0 238 48q121 76 121 233q0 160 -119 231q-74 47 -248 48h-387v-560z"/>
<glyph unicode="ß" horiz-adv-x="1060" d="M152 0v936q0 135 10 195.5t43 109.5q96 152 325 152q172 0 275.5 -92.5t103.5 -243.5q0 -113 -57 -187.5t-160 -101.5q135 -18 210 -111.5t75 -244.5q0 -195 -117 -310.5t-311 -115.5q-6 0 -92 4v98q66 -4 69 -4q158 0 244 84t86 240q0 158 -90 230.5t-285 72.5 q-14 0 -24 -2v98q133 0 205 33q127 59 126 213q0 106 -72.5 172.5t-189.5 66.5q-143 0 -204 -86q-49 -68 -50 -231v-975h-120z"/>
<glyph unicode="à" horiz-adv-x="1021" d="M68 250q0 195 186 266q53 23 101 30t245 27q88 8 122 35t34 90q0 111 -62.5 163t-195.5 52q-127 0 -191.5 -55t-77.5 -176h-116q8 160 111.5 246t285.5 86q135 0 229.5 -49.5t118.5 -130.5q14 -47 14 -162v-441q0 -92 11.5 -115.5t56.5 -23.5q18 0 45 8v-94 q-43 -14 -96 -14q-70 0 -98.5 41t-28.5 139q-127 -201 -373 -201q-150 0 -235.5 75t-85.5 204zM188 262q0 -88 63.5 -140t166.5 -52q147 0 242.5 87t95.5 220v162q-29 -27 -75 -38.5t-198 -31.5q-158 -20 -226.5 -68.5t-68.5 -138.5zM295 1405h145l193 -272h-96z"/>
<glyph unicode="á" horiz-adv-x="1021" d="M68 250q0 195 186 266q53 23 101 30t245 27q88 8 122 35t34 90q0 111 -62.5 163t-195.5 52q-127 0 -191.5 -55t-77.5 -176h-116q8 160 111.5 246t285.5 86q135 0 229.5 -49.5t118.5 -130.5q14 -47 14 -162v-441q0 -92 11.5 -115.5t56.5 -23.5q18 0 45 8v-94 q-43 -14 -96 -14q-70 0 -98.5 41t-28.5 139q-127 -201 -373 -201q-150 0 -235.5 75t-85.5 204zM188 262q0 -88 63.5 -140t166.5 -52q147 0 242.5 87t95.5 220v162q-29 -27 -75 -38.5t-198 -31.5q-158 -20 -226.5 -68.5t-68.5 -138.5zM453 1133l192 272h146l-242 -272h-96z "/>
<glyph unicode="â" horiz-adv-x="1021" d="M68 250q0 195 186 266q53 23 101 30t245 27q88 8 122 35t34 90q0 111 -62.5 163t-195.5 52q-127 0 -191.5 -55t-77.5 -176h-116q8 160 111.5 246t285.5 86q135 0 229.5 -49.5t118.5 -130.5q14 -47 14 -162v-441q0 -92 11.5 -115.5t56.5 -23.5q18 0 45 8v-94 q-43 -14 -96 -14q-70 0 -98.5 41t-28.5 139q-127 -201 -373 -201q-150 0 -235.5 75t-85.5 204zM188 262q0 -88 63.5 -140t166.5 -52q147 0 242.5 87t95.5 220v162q-29 -27 -75 -38.5t-198 -31.5q-158 -20 -226.5 -68.5t-68.5 -138.5zM248 1133l203 272h120l205 -272h-119 l-149 202l-154 -202h-106z"/>
<glyph unicode="ã" horiz-adv-x="1021" d="M68 250q0 195 186 266q53 23 101 30t245 27q88 8 122 35t34 90q0 111 -62.5 163t-195.5 52q-127 0 -191.5 -55t-77.5 -176h-116q8 160 111.5 246t285.5 86q135 0 229.5 -49.5t118.5 -130.5q14 -47 14 -162v-441q0 -92 11.5 -115.5t56.5 -23.5q18 0 45 8v-94 q-43 -14 -96 -14q-70 0 -98.5 41t-28.5 139q-127 -201 -373 -201q-150 0 -235.5 75t-85.5 204zM188 262q0 -88 63.5 -140t166.5 -52q147 0 242.5 87t95.5 220v162q-29 -27 -75 -38.5t-198 -31.5q-158 -20 -226.5 -68.5t-68.5 -138.5zM240 1174q29 188 157 188q49 0 115 -37 q92 -51 123 -51q57 0 76 94h73q-35 -186 -151 -186q-33 0 -62.5 12t-117.5 59q-29 16 -62 17q-59 0 -80 -96h-71z"/>
<glyph unicode="ä" horiz-adv-x="1021" d="M68 250q0 195 186 266q53 23 101 30t245 27q88 8 122 35t34 90q0 111 -62.5 163t-195.5 52q-127 0 -191.5 -55t-77.5 -176h-116q8 160 111.5 246t285.5 86q135 0 229.5 -49.5t118.5 -130.5q14 -47 14 -162v-441q0 -92 11.5 -115.5t56.5 -23.5q18 0 45 8v-94 q-43 -14 -96 -14q-70 0 -98.5 41t-28.5 139q-127 -201 -373 -201q-150 0 -235.5 75t-85.5 204zM188 262q0 -88 63.5 -140t166.5 -52q147 0 242.5 87t95.5 220v162q-29 -27 -75 -38.5t-198 -31.5q-158 -20 -226.5 -68.5t-68.5 -138.5zM276 1174v194h123v-194h-123zM625 1174 v194h123v-194h-123z"/>
<glyph unicode="å" horiz-adv-x="1021" d="M68 250q0 195 186 266q53 23 101 30t245 27q88 8 122 35t34 90q0 111 -62.5 163t-195.5 52q-127 0 -191.5 -55t-77.5 -176h-116q8 160 111.5 246t285.5 86q135 0 229.5 -49.5t118.5 -130.5q14 -47 14 -162v-441q0 -92 11.5 -115.5t56.5 -23.5q18 0 45 8v-94 q-43 -14 -96 -14q-70 0 -98.5 41t-28.5 139q-127 -201 -373 -201q-150 0 -235.5 75t-85.5 204zM188 262q0 -88 63.5 -140t166.5 -52q147 0 242.5 87t95.5 220v162q-29 -27 -75 -38.5t-198 -31.5q-158 -20 -226.5 -68.5t-68.5 -138.5zM334 1286q0 78 56 133.5t138 55.5 q78 0 133.5 -56.5t55.5 -134.5t-56.5 -134t-134.5 -56q-80 0 -136 56t-56 136zM414 1284q0 -47 32.5 -78.5t79.5 -31.5t79 31.5t32 78.5q0 45 -33 78t-78 33q-47 0 -79.5 -33t-32.5 -78z"/>
<glyph unicode="æ" horiz-adv-x="1687" d="M66 260q0 139 100 217q78 63 295 84q201 18 247 40t46 97q0 111 -61.5 163t-192.5 52q-133 0 -201 -57t-78 -178h-115q31 336 398 336q176 0 262 -76q45 -37 72 -127q94 203 342 203q254 0 370 -213q61 -115 62 -338h-748q0 -121 29 -195q80 -197 295 -196q238 0 297 250 h117q-35 -166 -147 -258.5t-279 -92.5q-276 0 -367 248q-45 -115 -161 -183.5t-261 -68.5t-233 81t-88 212zM188 266q0 -94 61.5 -149.5t170.5 -55.5q158 0 260 115q72 82 72 242v117q-43 -39 -177 -52q-199 -18 -256 -41q-131 -45 -131 -176zM862 563h629q-4 162 -88 256 t-225 94q-84 0 -155 -39.5t-110 -109.5q-41 -72 -51 -201z"/>
<glyph unicode="ç" horiz-adv-x="1017" d="M84 483q0 242 125 386.5t334 144.5q172 0 278.5 -89t126.5 -251h-123q-47 240 -280 239q-156 0 -248 -114.5t-92 -307t89 -306t241 -113.5q123 0 201.5 73.5t97.5 206.5h120q-23 -176 -141.5 -282.5t-286.5 -98.5l-59 -77q49 6 68 6q70 0 110.5 -35t40.5 -92 q0 -74 -57.5 -118t-151.5 -44q-80 0 -178 39l27 57q74 -31 137 -31q53 0 85 24t32 62q0 35 -28 56.5t-75 21.5q-35 0 -78 -16l-28 29l94 122q-174 23 -277.5 161t-103.5 347z"/>
<glyph unicode="è" horiz-adv-x="1044" d="M84 481q0 236 126 384.5t325 148.5q127 0 226 -64.5t154 -183.5q53 -115 54 -303h-764q4 -188 91 -289.5t243 -101.5q240 0 303 254h114q-35 -170 -143 -262.5t-276 -92.5q-207 0 -330 139.5t-123 370.5zM207 563h639q-8 162 -93 256t-222.5 94t-220.5 -90t-103 -260z M319 1405h148l192 -272h-98z"/>
<glyph unicode="é" horiz-adv-x="1044" d="M84 481q0 236 126 384.5t325 148.5q127 0 226 -64.5t154 -183.5q53 -115 54 -303h-764q4 -188 91 -289.5t243 -101.5q240 0 303 254h114q-35 -170 -143 -262.5t-276 -92.5q-207 0 -330 139.5t-123 370.5zM207 563h639q-8 162 -93 256t-222.5 94t-220.5 -90t-103 -260z M496 1133l190 272h148l-242 -272h-96z"/>
<glyph unicode="ê" horiz-adv-x="1044" d="M84 481q0 236 126 384.5t325 148.5q127 0 226 -64.5t154 -183.5q53 -115 54 -303h-764q4 -188 91 -289.5t243 -101.5q240 0 303 254h114q-35 -170 -143 -262.5t-276 -92.5q-207 0 -330 139.5t-123 370.5zM207 563h639q-8 162 -93 256t-222.5 94t-220.5 -90t-103 -260z M279 1133l202 272h121l205 -272h-119l-149 202l-154 -202h-106z"/>
<glyph unicode="ë" horiz-adv-x="1044" d="M84 481q0 236 126 384.5t325 148.5q127 0 226 -64.5t154 -183.5q53 -115 54 -303h-764q4 -188 91 -289.5t243 -101.5q240 0 303 254h114q-35 -170 -143 -262.5t-276 -92.5q-207 0 -330 139.5t-123 370.5zM207 563h639q-8 162 -93 256t-222.5 94t-220.5 -90t-103 -260z M301 1174v194h123v-194h-123zM647 1174v194h123v-194h-123z"/>
<glyph unicode="ì" horiz-adv-x="419" d="M-6 1405h139l158 -272h-96zM150 0v985h120v-985h-120z"/>
<glyph unicode="í" horiz-adv-x="419" d="M150 0v985h120v-985h-120zM178 1133l158 272h139l-201 -272h-96z"/>
<glyph unicode="î" horiz-adv-x="419" d="M-10 1133l162 272h120l158 -272h-113l-108 196l-113 -196h-106zM152 0v985h120v-985h-120z"/>
<glyph unicode="ï" horiz-adv-x="419" d="M31 1174v194h123v-194h-123zM150 0v985h120v-985h-120zM266 1174v194h123v-194h-123z"/>
<glyph unicode="ð" horiz-adv-x="1101" d="M84 494q0 231 128 375.5t335 144.5q59 0 95 -11.5t93 -48.5q-49 90 -127 207l-151 -74l-41 72l145 78l-92 127l74 47l108 -129l150 74l47 -72l-143 -74q170 -242 241.5 -405.5t71.5 -315.5q0 -236 -126 -377t-339 -141t-341 143.5t-128 379.5zM207 492q0 -193 94 -306.5 t254 -113.5q156 0 249 113.5t93 306.5q0 190 -93 305.5t-247 115.5q-162 0 -256 -113t-94 -308z"/>
<glyph unicode="ñ" horiz-adv-x="1097" d="M152 0v985h112v-184q45 76 82 110q102 102 268 103q205 0 291 -135q51 -78 51 -246v-633h-120v596q0 166 -43 223q-63 90 -205 90q-90 0 -162 -41t-109 -112q-45 -84 -45 -260v-496h-120zM303 1174q29 188 158 188q47 0 114 -37q92 -51 121 -51q57 0 78 94h72 q-31 -186 -150 -186q-51 0 -180 71q-33 16 -61 17q-59 0 -82 -96h-70z"/>
<glyph unicode="ò" horiz-adv-x="1101" d="M84 492q0 240 129 381t346 141q209 0 334 -143.5t125 -381t-126 -378t-339 -140.5t-341 141.5t-128 379.5zM207 492q0 -193 94 -306.5t254 -113.5q156 0 249 113.5t93 306.5q0 190 -93 305.5t-247 115.5q-162 0 -256 -113t-94 -308zM332 1405h147l193 -272h-99z"/>
<glyph unicode="ó" horiz-adv-x="1101" d="M84 492q0 240 129 381t346 141q209 0 334 -143.5t125 -381t-126 -378t-339 -140.5t-341 141.5t-128 379.5zM207 492q0 -193 94 -306.5t254 -113.5q156 0 249 113.5t93 306.5q0 190 -93 305.5t-247 115.5q-162 0 -256 -113t-94 -308zM496 1133l190 272h148l-242 -272h-96z "/>
<glyph unicode="ô" horiz-adv-x="1101" d="M84 492q0 240 129 381t346 141q209 0 334 -143.5t125 -381t-126 -378t-339 -140.5t-341 141.5t-128 379.5zM207 492q0 -193 94 -306.5t254 -113.5q156 0 249 113.5t93 306.5q0 190 -93 305.5t-247 115.5q-162 0 -256 -113t-94 -308zM299 1133l203 272h121l204 -272h-118 l-150 202l-153 -202h-107z"/>
<glyph unicode="õ" horiz-adv-x="1101" d="M84 492q0 240 129 381t346 141q209 0 334 -143.5t125 -381t-126 -378t-339 -140.5t-341 141.5t-128 379.5zM207 492q0 -193 94 -306.5t254 -113.5q156 0 249 113.5t93 306.5q0 190 -93 305.5t-247 115.5q-162 0 -256 -113t-94 -308zM293 1174q29 188 158 188 q47 0 114 -37q92 -51 121 -51q57 0 78 94h72q-31 -186 -150 -186q-51 0 -180 71q-33 16 -62 17q-61 0 -82 -96h-69z"/>
<glyph unicode="ö" horiz-adv-x="1101" d="M84 492q0 240 129 381t346 141q209 0 334 -143.5t125 -381t-126 -378t-339 -140.5t-341 141.5t-128 379.5zM207 492q0 -193 94 -306.5t254 -113.5q156 0 249 113.5t93 306.5q0 190 -93 305.5t-247 115.5q-162 0 -256 -113t-94 -308zM315 1174v194h123v-194h-123z M664 1174v194h122v-194h-122z"/>
<glyph unicode="÷" d="M100 618v89h916v-89h-916zM469 365q0 39 26.5 64.5t65.5 25.5q35 0 61.5 -27t26.5 -63.5t-26.5 -63.5t-63.5 -27t-63.5 27t-26.5 64zM469 961q0 39 26.5 64.5t65.5 25.5q35 0 61.5 -27t26.5 -63.5t-26.5 -63.5t-63.5 -27q-39 0 -64.5 27t-25.5 64z"/>
<glyph unicode="ø" horiz-adv-x="1101" d="M63 27l117 125q-96 145 -96 342q0 236 128 378t339 142q193 0 317 -119l105 113l63 -58l-110 -121q92 -145 92 -337q0 -240 -126 -380.5t-339 -140.5q-188 0 -317 115l-109 -117zM205 498q0 -158 59 -262l527 581q-102 96 -240 96q-156 0 -251 -114.5t-95 -300.5z M315 166q106 -94 240 -94q156 0 249 113.5t93 306.5q0 143 -59 253z"/>
<glyph unicode="ù" horiz-adv-x="1095" d="M143 350v635h121v-584q0 -135 25 -198q23 -57 84 -92t139 -35q166 0 254 137q57 94 57 266v506h121v-985h-113v184q-119 -213 -346 -213q-178 0 -274 119q-68 86 -68 260zM315 1405h148l190 -272h-96z"/>
<glyph unicode="ú" horiz-adv-x="1095" d="M143 350v635h121v-584q0 -135 25 -198q23 -57 84 -92t139 -35q166 0 254 137q57 94 57 266v506h121v-985h-113v184q-119 -213 -346 -213q-178 0 -274 119q-68 86 -68 260zM469 1133l193 272h145l-242 -272h-96z"/>
<glyph unicode="û" horiz-adv-x="1095" d="M143 350v635h121v-584q0 -135 25 -198q23 -57 84 -92t139 -35q166 0 254 137q57 94 57 266v506h121v-985h-113v184q-119 -213 -346 -213q-178 0 -274 119q-68 86 -68 260zM289 1133l203 272h120l205 -272h-121l-147 202l-154 -202h-106z"/>
<glyph unicode="ü" horiz-adv-x="1095" d="M143 350v635h121v-584q0 -135 25 -198q23 -57 84 -92t139 -35q166 0 254 137q57 94 57 266v506h121v-985h-113v184q-119 -213 -346 -213q-178 0 -274 119q-68 86 -68 260zM319 1174v194h123v-194h-123zM666 1174v194h122v-194h-122z"/>
<glyph unicode="ý" horiz-adv-x="894" d="M6 985h133l267 -678q25 -63 59 -174q43 135 61 186l242 666h123l-387 -1024q-70 -184 -109 -244q-61 -92 -182 -92q-41 0 -80 6l-27 2v107q49 -12 87 -12q55 0 93 33.5t66 109.5q27 66 35 88q18 35 19 41q0 4 -3 6zM379 1133l192 272h148l-242 -272h-98z"/>
<glyph unicode="þ" horiz-adv-x="1146" d="M152 -367v1733h120v-565q45 102 136.5 157.5t216.5 55.5q201 0 320.5 -140.5t119.5 -375.5q0 -240 -120 -383.5t-320 -143.5q-125 0 -216.5 58.5t-136.5 167.5v-564h-120zM270 494q0 -193 92.5 -307.5t247.5 -114.5q152 0 243 114.5t91 307.5q0 190 -91 304.5t-241 114.5 q-160 0 -251 -112t-91 -307z"/>
<glyph unicode="ÿ" horiz-adv-x="894" d="M6 985h133l267 -678q25 -63 59 -174q43 135 61 186l242 666h123l-387 -1024q-70 -184 -109 -244q-61 -92 -182 -92q-41 0 -80 6l-27 2v107q49 -12 87 -12q55 0 93 33.5t66 109.5q27 66 35 88q18 35 19 41q0 4 -3 6zM213 1174v194h123v-194h-123zM561 1174v194h123v-194 h-123z"/>
<glyph unicode="Œ" horiz-adv-x="2107" d="M94 676q0 319 180.5 520t466.5 201q129 0 242 -47q49 -23 119 -82l4 -2q2 -2 7 -5.5t9 -7.5v113h899v-113h-778v-489h707v-113h-707v-538h787v-113h-908v139q-162 -170 -395 -170q-276 0 -454.5 199t-178.5 508zM223 678q0 -264 143.5 -430t372.5 -166q197 0 312 119 q63 63 63 127v716q0 72 -78 140q-113 100 -282 100q-238 0 -384.5 -167t-146.5 -439z"/>
<glyph unicode="œ" horiz-adv-x="1748" d="M84 489q0 242 119 383.5t321 141.5q268 0 357 -240q104 240 362 240q203 0 314.5 -135.5t113.5 -384.5v-31h-739v-31q0 -160 88 -260t227 -100q225 0 299 250h117q-39 -168 -149.5 -259.5t-274.5 -91.5q-281 0 -362 252q-82 -252 -363 -252q-197 0 -313.5 140t-116.5 378 zM205 487q0 -193 85 -304t232 -111q145 0 225 112.5t80 315.5q0 197 -79.5 305t-223.5 108q-152 0 -235.5 -112.5t-83.5 -313.5zM930 563h620q-8 139 -53 213q-92 137 -258 137q-84 0 -153.5 -41t-108.5 -112q-39 -76 -47 -197z"/>
<glyph unicode="Ÿ" horiz-adv-x="1185" d="M-12 1366h157l381 -571q33 -49 72 -121q61 104 72 117l381 575h149l-541 -801v-565h-129v565zM322 1509v191h129v-191h-129zM735 1509v191h129v-191h-129z"/>
<glyph unicode="ˆ" horiz-adv-x="1024" d="M248 1133l203 272h120l205 -272h-119l-149 202l-154 -202h-106z"/>
<glyph unicode="˜" horiz-adv-x="1024" d="M240 1174q29 188 157 188q47 0 115 -37q92 -51 123 -51q55 0 76 94h73q-35 -186 -151 -186q-33 0 -62.5 12t-117.5 59q-29 16 -62 17q-59 0 -82 -96h-69z"/>
<glyph unicode=" " horiz-adv-x="917"/>
<glyph unicode=" " horiz-adv-x="1837"/>
<glyph unicode=" " horiz-adv-x="917"/>
<glyph unicode=" " horiz-adv-x="1837"/>
<glyph unicode=" " horiz-adv-x="612"/>
<glyph unicode=" " horiz-adv-x="458"/>
<glyph unicode=" " horiz-adv-x="305"/>
<glyph unicode=" " horiz-adv-x="305"/>
<glyph unicode=" " horiz-adv-x="229"/>
<glyph unicode=" " horiz-adv-x="366"/>
<glyph unicode=" " horiz-adv-x="100"/>
<glyph unicode="‐" horiz-adv-x="454" d="M0 451v108h455v-108h-455z"/>
<glyph unicode="‑" horiz-adv-x="454" d="M0 451v108h455v-108h-455z"/>
<glyph unicode="‒" horiz-adv-x="454" d="M0 451v108h455v-108h-455z"/>
<glyph unicode="–" d="M129 451v108h860v-108h-860z"/>
<glyph unicode="—" horiz-adv-x="1366" d="M0 451v108h1366v-108h-1366z"/>
<glyph unicode="‘" horiz-adv-x="456" d="M150 922v155q0 133 40.5 207t128.5 102v-81q-84 -45 -86 -185h74v-198h-157z"/>
<glyph unicode="’" horiz-adv-x="456" d="M137 903v82q84 43 86 182h-73v199h157v-154q0 -133 -41 -207.5t-129 -101.5z"/>
<glyph unicode="‚" horiz-adv-x="456" d="M137 -184q84 45 86 184h-73v199h157v-156q0 -133 -41 -207t-129 -100v80z"/>
<glyph unicode="“" horiz-adv-x="743" d="M150 930v164q0 233 161 292v-77q-84 -53 -84 -187h72v-192h-149zM444 930v164q0 233 162 292v-77q-84 -53 -84 -187h72v-192h-150z"/>
<glyph unicode="”" horiz-adv-x="743" d="M137 909v78q84 53 84 187h-71v192h149v-164q0 -232 -162 -293zM430 909v78q86 47 86 187h-72v192h150v-164q0 -115 -43 -191.5t-121 -101.5z"/>
<glyph unicode="„" horiz-adv-x="743" d="M137 -186q84 53 84 186h-71v193h149v-164q0 -231 -162 -293v78zM430 -186q86 47 86 186h-72v193h150v-164q0 -115 -43 -192t-121 -101v78z"/>
<glyph unicode="•" horiz-adv-x="1366" d="M401 692q0 119 84 202t205 83q113 0 196 -84t83 -199q0 -119 -83 -201.5t-200 -82.5t-201 82.5t-84 199.5z"/>
<glyph unicode="…" horiz-adv-x="1372" d="M150 0v205h157v-205h-157zM606 0v205h158v-205h-158zM1063 0v205h158v-205h-158z"/>
<glyph unicode=" " horiz-adv-x="366"/>
<glyph unicode="‹" horiz-adv-x="485" d="M100 446v117l256 240v-125l-180 -174l180 -172v-125z"/>
<glyph unicode="›" horiz-adv-x="485" d="M129 207v125l180 174l-180 172v125l256 -238v-116z"/>
<glyph unicode=" " horiz-adv-x="458"/>
<glyph unicode="€" d="M20 506l33 82h127v47q0 63 4 104v11h-164l33 81h140q88 522 487 523q225 0 393 -133l-45 -101q-115 78 -190.5 106.5t-159.5 28.5q-299 0 -369 -424h590l-33 -81h-567q-4 -39 -4 -101v-51l2 -10h500l-33 -82h-461q29 -211 126 -321.5t255 -110.5q78 0 145.5 22.5 t190.5 89.5v-123q-158 -92 -348 -92q-416 0 -486 535h-166z"/>
<glyph unicode="™" horiz-adv-x="1669" d="M20 1290v76h658v-76h-285v-702h-90v702h-283zM735 588v778h117l235 -549q33 -80 50 -127q6 18 25.5 69.5t21.5 55.5l231 551h119v-778h-88v469q0 94 6 192q-33 -82 -37 -94l-239 -567h-78l-244 561q-20 51 -37 96q6 -143 6 -186v-471h-88z"/>
<glyph unicode="" horiz-adv-x="985" d="M0 985h985v-985h-985v985z"/>
<glyph unicode="ﬁ" horiz-adv-x="952" d="M0 885v100h168v84q0 154 35 209q59 98 215 98q45 0 94 -8v-102q-49 8 -80 8q-96 0 -125 -53q-18 -31 -18 -138v-98h198v-100h-198v-885h-121v885h-168zM682 0v985h121v-985h-121zM682 1174v192h121v-192h-121z"/>
<glyph unicode="ﬂ" horiz-adv-x="952" d="M0 885v100h168v84q0 154 35 209q59 98 215 98q45 0 94 -8v-102q-49 8 -80 8q-96 0 -125 -53q-18 -31 -18 -138v-98h198v-100h-198v-885h-121v885h-168zM682 0v1366h121v-1366h-121z"/>
<glyph unicode="ﬃ" horiz-adv-x="1468" d="M0 885v100h168v84q0 154 35 209q59 98 215 98q45 0 94 -8v-102q-49 8 -80 8q-96 0 -125 -53q-18 -31 -18 -138v-98h198v-100h-198v-885h-121v885h-168zM514 885v100h168v84q0 154 35 209q59 98 215 98q45 0 94 -8v-102q-49 8 -80 8q-96 0 -125 -53q-18 -31 -18 -138v-98 h198v-100h-198v-885h-121v885h-168zM1196 0v985h121v-985h-121zM1196 1174v192h121v-192h-121z"/>
<glyph unicode="ﬄ" horiz-adv-x="1468" d="M0 885v100h168v84q0 154 35 209q59 98 215 98q45 0 94 -8v-102q-49 8 -80 8q-96 0 -125 -53q-18 -31 -18 -138v-98h198v-100h-198v-885h-121v885h-168zM514 885v100h168v84q0 154 35 209q59 98 215 98q45 0 94 -8v-102q-49 8 -80 8q-96 0 -125 -53q-18 -31 -18 -138v-98 h198v-100h-198v-885h-121v885h-168zM1196 0v1366h121v-1366h-121z"/>
</font>
</defs>
</svg>
